HIERARCHY
ROOT Root
{
OFFSET 0.000000 0.000000 0.000000
  CHANNELS 6 Xposition Yposition Zposition Zrotation Yrotation Xrotation
 JOINT Hips
 {
   OFFSET -0.00455359416082507 101.28157745081357 1.7763568394002505e-15
   CHANNELS 6 Xposition Yposition Zposition Zrotation Yrotation Xrotation
  JOINT Spine1
  {
    OFFSET 5.003913 -0.037094 -0.013727
    CHANNELS 3 Zrotation Yrotation Xrotation
   JOINT Spine2
   {
     OFFSET 7.125363 -0.000001 -0.000000
     CHANNELS 3 Zrotation Yrotation Xrotation
    JOINT Chest
    {
      OFFSET 7.594027 0.000001 -0.000000
      CHANNELS 3 Zrotation Yrotation Xrotation
     JOINT Neck1
     {
       OFFSET 26.313085 -0.460272 -0.181672
       CHANNELS 3 Zrotation Yrotation Xrotation
      JOINT Neck2
      {
        OFFSET 8.045911 -0.000000 0.000000
        CHANNELS 3 Zrotation Yrotation Xrotation
       JOINT Head
       {
         OFFSET 6.432774 0.000000 0.000000
         CHANNELS 3 Zrotation Yrotation Xrotation
        JOINT HeadEnd
        {
          OFFSET 16.169773 0.064510 0.003620
          CHANNELS 3 Zrotation Yrotation Xrotation
        }
        JOINT Jaw
        {
          OFFSET 0.108741 3.129380 0.002639
          CHANNELS 3 Zrotation Yrotation Xrotation
        }
        JOINT LeftEye
        {
          OFFSET 4.451730 8.166359 3.206392
          CHANNELS 3 Zrotation Yrotation Xrotation
        }
        JOINT RightEye
        {
          OFFSET 4.436895 8.135758 -3.222429
          CHANNELS 3 Zrotation Yrotation Xrotation
        }
       }
      }
     }
     JOINT LeftShoulder
     {
       OFFSET 23.218928 5.195579 1.621656
       CHANNELS 3 Zrotation Yrotation Xrotation
      JOINT LeftArm
      {
        OFFSET 15.902118 0.000002 -0.000002
        CHANNELS 3 Zrotation Yrotation Xrotation
       JOINT LeftForeArm
       {
         OFFSET 28.739307 0.000000 -0.000001
         CHANNELS 3 Zrotation Yrotation Xrotation
        JOINT LeftHand
        {
          OFFSET 27.093980 -0.000004 -0.000000
          CHANNELS 3 Zrotation Yrotation Xrotation
         JOINT LeftHandThumb1
         {
           OFFSET 2.276781 3.380274 0.833840
           CHANNELS 3 Zrotation Yrotation Xrotation
          JOINT LeftHandThumb2
          {
            OFFSET 4.705309 -0.000001 -0.000001
            CHANNELS 3 Zrotation Yrotation Xrotation
           JOINT LeftHandThumb3
           {
             OFFSET 2.798515 -0.000000 0.000003
             CHANNELS 3 Zrotation Yrotation Xrotation
            JOINT LeftHandThumbEnd
            {
              OFFSET 3.180793 0.000004 -0.000004
              CHANNELS 3 Zrotation Yrotation Xrotation
            }
           }
          }
         }
         JOINT LeftHandIndex1
         {
           OFFSET 3.247786 2.352677 0.137192
           CHANNELS 3 Zrotation Yrotation Xrotation
          JOINT LeftHandIndex2
          {
            OFFSET 6.367095 0.000001 -0.000000
            CHANNELS 3 Zrotation Yrotation Xrotation
           JOINT LeftHandIndex3
           {
             OFFSET 3.662364 -0.000000 0.000000
             CHANNELS 3 Zrotation Yrotation Xrotation
            JOINT LeftHandIndex4
            {
              OFFSET 2.329242 0.000004 -0.000004
              CHANNELS 3 Zrotation Yrotation Xrotation
             JOINT LeftHandIndexEnd
             {
               OFFSET 2.767823 0.000001 0.000000
               CHANNELS 3 Zrotation Yrotation Xrotation
             }
            }
           }
          }
         }
         JOINT LeftHandMiddle1
         {
           OFFSET 3.163612 0.945023 -0.406112
           CHANNELS 3 Zrotation Yrotation Xrotation
          JOINT LeftHandMiddle2
          {
            OFFSET 6.276789 0.000003 -0.000000
            CHANNELS 3 Zrotation Yrotation Xrotation
           JOINT LeftHandMiddle3
           {
             OFFSET 4.356520 -0.000001 0.000004
             CHANNELS 3 Zrotation Yrotation Xrotation
            JOINT LeftHandMiddle4
            {
              OFFSET 2.996877 -0.000000 0.000008
              CHANNELS 3 Zrotation Yrotation Xrotation
             JOINT LeftHandMiddleEnd
             {
               OFFSET 2.323256 0.000003 -0.000004
               CHANNELS 3 Zrotation Yrotation Xrotation
             }
            }
           }
          }
         }
         JOINT LeftHandRing1
         {
           OFFSET 2.882606 -0.309162 0.107445
           CHANNELS 3 Zrotation Yrotation Xrotation
          JOINT LeftHandRing2
          {
            OFFSET 6.033198 0.000000 0.000004
            CHANNELS 3 Zrotation Yrotation Xrotation
           JOINT LeftHandRing3
           {
             OFFSET 4.350578 0.000003 -0.000000
             CHANNELS 3 Zrotation Yrotation Xrotation
            JOINT LeftHandRing4
            {
              OFFSET 2.651321 0.000002 -0.000007
              CHANNELS 3 Zrotation Yrotation Xrotation
             JOINT LeftHandRingEnd
             {
               OFFSET 1.937663 0.000001 -0.000004
               CHANNELS 3 Zrotation Yrotation Xrotation
             }
            }
           }
          }
         }
         JOINT LeftHandPinky1
         {
           OFFSET 2.865315 -1.525436 0.575687
           CHANNELS 3 Zrotation Yrotation Xrotation
          JOINT LeftHandPinky2
          {
            OFFSET 5.549360 0.000001 -0.000008
            CHANNELS 3 Zrotation Yrotation Xrotation
           JOINT LeftHandPinky3
           {
             OFFSET 3.070974 0.000000 -0.000004
             CHANNELS 3 Zrotation Yrotation Xrotation
            JOINT LeftHandPinky4
            {
              OFFSET 1.549672 0.000001 -0.000000
              CHANNELS 3 Zrotation Yrotation Xrotation
             JOINT LeftHandPinkyEnd
             {
               OFFSET 1.952123 -0.000000 0.000000
               CHANNELS 3 Zrotation Yrotation Xrotation
             }
            }
           }
          }
         }
        }
       }
      }
     }
     JOINT RightShoulder
     {
       OFFSET 23.161717 5.296122 -1.380114
       CHANNELS 3 Zrotation Yrotation Xrotation
      JOINT RightArm
      {
        OFFSET -16.027195 -0.000002 0.000011
        CHANNELS 3 Zrotation Yrotation Xrotation
       JOINT RightForeArm
       {
         OFFSET -28.736639 0.000004 0.000002
         CHANNELS 3 Zrotation Yrotation Xrotation
        JOINT RightHand
        {
          OFFSET -27.133619 0.000006 0.000000
          CHANNELS 3 Zrotation Yrotation Xrotation
         JOINT RightHandThumb1
         {
           OFFSET -2.274328 -3.351035 -0.830670
           CHANNELS 3 Zrotation Yrotation Xrotation
          JOINT RightHandThumb2
          {
            OFFSET -4.703594 -0.000003 0.000002
            CHANNELS 3 Zrotation Yrotation Xrotation
           JOINT RightHandThumb3
           {
             OFFSET -2.794935 -0.000004 -0.000003
             CHANNELS 3 Zrotation Yrotation Xrotation
            JOINT RightHandThumbEnd
            {
              OFFSET -3.183852 0.000004 0.000001
              CHANNELS 3 Zrotation Yrotation Xrotation
            }
           }
          }
         }
         JOINT RightHandIndex1
         {
           OFFSET -3.253496 -2.337550 -0.127667
           CHANNELS 3 Zrotation Yrotation Xrotation
          JOINT RightHandIndex2
          {
            OFFSET -6.344434 0.000000 -0.000000
            CHANNELS 3 Zrotation Yrotation Xrotation
           JOINT RightHandIndex3
           {
             OFFSET -3.654871 0.000000 -0.000008
             CHANNELS 3 Zrotation Yrotation Xrotation
            JOINT RightHandIndex4
            {
              OFFSET -2.327586 -0.000001 -0.000000
              CHANNELS 3 Zrotation Yrotation Xrotation
             JOINT RightHandIndexEnd
             {
               OFFSET -2.770001 0.000003 0.000008
               CHANNELS 3 Zrotation Yrotation Xrotation
             }
            }
           }
          }
         }
         JOINT RightHandMiddle1
         {
           OFFSET -3.168223 -0.944764 0.411762
           CHANNELS 3 Zrotation Yrotation Xrotation
          JOINT RightHandMiddle2
          {
            OFFSET -6.266691 -0.000001 -0.000004
            CHANNELS 3 Zrotation Yrotation Xrotation
           JOINT RightHandMiddle3
           {
             OFFSET -4.348901 -0.000000 -0.000000
             CHANNELS 3 Zrotation Yrotation Xrotation
            JOINT RightHandMiddle4
            {
              OFFSET -3.000240 0.000002 -0.000004
              CHANNELS 3 Zrotation Yrotation Xrotation
             JOINT RightHandMiddleEnd
             {
               OFFSET -2.321477 -0.000004 -0.000004
               CHANNELS 3 Zrotation Yrotation Xrotation
             }
            }
           }
          }
         }
         JOINT RightHandRing1
         {
           OFFSET -2.885654 0.293261 -0.119232
           CHANNELS 3 Zrotation Yrotation Xrotation
          JOINT RightHandRing2
          {
            OFFSET -6.032835 -0.000001 -0.000004
            CHANNELS 3 Zrotation Yrotation Xrotation
           JOINT RightHandRing3
           {
             OFFSET -4.338810 0.000000 -0.000004
             CHANNELS 3 Zrotation Yrotation Xrotation
            JOINT RightHandRing4
            {
              OFFSET -2.654903 -0.000004 -0.000004
              CHANNELS 3 Zrotation Yrotation Xrotation
             JOINT RightHandRingEnd
             {
               OFFSET -1.935122 0.000000 0.000004
               CHANNELS 3 Zrotation Yrotation Xrotation
             }
            }
           }
          }
         }
         JOINT RightHandPinky1
         {
           OFFSET -2.866241 1.503904 -0.605270
           CHANNELS 3 Zrotation Yrotation Xrotation
          JOINT RightHandPinky2
          {
            OFFSET -5.553177 -0.000002 0.000000
            CHANNELS 3 Zrotation Yrotation Xrotation
           JOINT RightHandPinky3
           {
             OFFSET -3.062664 -0.000001 -0.000004
             CHANNELS 3 Zrotation Yrotation Xrotation
            JOINT RightHandPinky4
            {
              OFFSET -1.546529 0.000002 0.000004
              CHANNELS 3 Zrotation Yrotation Xrotation
             JOINT RightHandPinkyEnd
             {
               OFFSET -1.952341 -0.000000 -0.000004
               CHANNELS 3 Zrotation Yrotation Xrotation
             }
            }
           }
          }
         }
        }
       }
      }
     }
    }
   }
  }
  JOINT LeftLeg
  {
    OFFSET -8.443107 2.567604 10.043214
    CHANNELS 3 Zrotation Yrotation Xrotation
   JOINT LeftShin
   {
     OFFSET 43.229200 0.000001 -0.000001
     CHANNELS 3 Zrotation Yrotation Xrotation
    JOINT LeftFoot
    {
      OFFSET 42.298609 0.000001 0.000001
      CHANNELS 3 Zrotation Yrotation Xrotation
     JOINT LeftToeBase
     {
       OFFSET 14.165858 0.000001 0.000000
       CHANNELS 3 Zrotation Yrotation Xrotation
      JOINT LeftToeEnd
      {
        OFFSET 6.714100 -0.234461 0.000000
        CHANNELS 3 Zrotation Yrotation Xrotation
      }
     }
    }
   }
  }
  JOINT RightLeg
  {
    OFFSET -8.303923 2.592729 -10.047278
    CHANNELS 3 Zrotation Yrotation Xrotation
   JOINT RightShin
   {
     OFFSET -43.369684 -0.000000 0.000001
     CHANNELS 3 Zrotation Yrotation Xrotation
    JOINT RightFoot
    {
      OFFSET -42.260785 0.000004 0.000002
      CHANNELS 3 Zrotation Yrotation Xrotation
     JOINT RightToeBase
     {
       OFFSET -14.222245 -0.000002 -0.000001
       CHANNELS 3 Zrotation Yrotation Xrotation
      JOINT RightToeEnd
      {
        OFFSET -6.660062 0.232574 -0.000002
        CHANNELS 3 Zrotation Yrotation Xrotation
      }
     }
    }
   }
  }
 }
}
MOTION
Frames: 4
Frame Time: 0.008333
0.000000 0.000000 0.000000 0.000000 0.000000 0.000000 1.558339 100.004013 -1.244059 90.749376 0.006348 91.478192 -4.351365 -0.782465 -0.066794 -12.374284 -0.768839 0.127493 -162.969086 -179.477900 177.954741 23.997149 0.958848 2.632837 -2.589444 -0.663147 -0.005345 -32.633215 1.809481 -1.856035 0.000006 0.000000 0.000000 0.000006 0.000000 0.000000 0.013228 -0.000055 -0.000761 0.013223 -0.000055 -0.000761 54.256142 -104.922935 -40.596012 39.871507 -57.871434 23.480893 29.480564 -0.000050 -0.000566 -4.891044 3.550826 6.807566 17.636621 -26.322712 52.411155 -19.466645 -14.395592 29.410352 0.000000 -8.774814 0.000000 0.000000 0.000000 -0.000004 -0.609776 -1.795653 -3.889325 -4.807087 -11.046803 -2.937845 0.000000 -20.975994 0.000000 -5.019973 -25.033521 -4.031871 0.000006 0.000000 0.000000 -10.634530 -5.686969 -3.565584 10.573263 -17.922936 -3.113898 0.000000 -13.821193 0.000000 -0.501785 -31.181457 -4.027009 0.000002 0.000000 0.000002 -13.982710 -7.150195 -2.875039 13.772719 -8.401483 -3.218239 0.347728 -34.211501 0.771652 -0.963029 -17.733337 2.621012 0.000000 0.000000 0.000000 -17.346414 -20.095210 -4.201776 21.757546 -1.638370 3.866422 0.000000 -6.338816 0.000000 -1.697594 -22.591709 -6.193992 0.000000 -0.000004 -0.000002 -144.231044 -102.657728 -20.338798 30.163819 -64.177583 2.891753 32.027739 -0.000106 -0.000188 -0.402885 -2.347458 17.812950 22.182096 -20.375874 49.933272 -16.701795 -16.743521 28.476499 0.000000 -12.690592 0.000000 0.000003 0.000000 0.000000 -0.105919 -1.513855 -4.275878 -5.039037 -5.612866 -2.953552 0.000000 -11.020509 0.000000 -6.111297 -15.895308 -3.840458 0.000000 0.000000 0.000000 -10.283364 -5.680285 -4.341833 11.028282 -11.302392 -2.372630 -1.384272 -14.238564 -6.320108 -0.625450 -26.924139 -3.827588 0.000002 0.000000 0.000002 -13.708517 -7.363472 -3.720934 18.141130 -14.052722 -3.242670 0.000000 -18.787243 0.000000 -0.429714 -8.456029 2.555498 0.000000 0.000000 0.000000 -15.923531 -20.094472 -5.473576 30.419190 -7.190812 1.735924 0.000000 -8.162914 0.000000 -1.861911 -22.861429 -6.167925 0.000000 -0.000003 -0.000001 -175.204581 -2.818624 -6.662203 5.787641 0.000211 0.000205 -79.391941 -0.207252 -5.912520 -5.315605 1.542557 2.146635 -0.999998 0.000000 0.000000 4.463870 -5.423983 -8.282091 6.625411 -0.000075 0.000393 -79.722674 0.421417 -8.353873 -4.526803 0.616202 1.664243 -1.000001 0.000000 0.000000
0.000000 0.000000 0.000000 0.000000 0.000000 0.000000 1.606739 100.006279 -1.289824 90.754227 -0.042568 91.501586 -4.308971 -0.783091 -0.065546 -12.356444 -0.772607 0.134089 -162.957677 -179.471916 177.959811 23.940960 0.941357 2.633308 -2.589050 -0.663107 -0.006698 -32.730993 1.808056 -1.861302 0.000006 0.000000 0.000000 0.000006 0.000000 0.000000 0.013163 -0.000055 -0.000760 0.013158 -0.000055 -0.000759 54.283372 -104.902876 -40.606426 39.896605 -57.776004 23.689406 29.536255 -0.000050 -0.000566 -4.953991 3.528226 6.784540 17.636621 -26.322712 52.411155 -19.466645 -14.395592 29.410352 0.000000 -8.774814 0.000000 0.000000 0.000000 -0.000004 -0.609776 -1.795653 -3.889325 -4.807087 -11.046803 -2.937845 0.000000 -20.975994 0.000000 -5.019973 -25.033521 -4.031871 0.000006 0.000000 0.000000 -10.634530 -5.686969 -3.565584 10.573263 -17.922936 -3.113898 0.000000 -13.821193 0.000000 -0.501785 -31.181457 -4.027009 0.000002 0.000000 0.000002 -13.982710 -7.150195 -2.875039 13.772719 -8.401483 -3.218239 0.347728 -34.211501 0.771652 -0.963029 -17.733337 2.621012 0.000000 0.000000 0.000000 -17.346414 -20.095210 -4.201776 21.757546 -1.638370 3.866422 0.000000 -6.338816 0.000000 -1.697594 -22.591709 -6.193992 0.000000 -0.000004 -0.000002 -144.311377 -102.647475 -20.222121 29.934556 -64.165080 2.669830 32.520183 -0.000108 -0.000189 -0.325475 -2.459638 17.711093 22.182096 -20.375874 49.933272 -16.701795 -16.743521 28.476499 0.000000 -12.690592 0.000000 0.000003 0.000000 0.000000 -0.105919 -1.513855 -4.275878 -5.039037 -5.612866 -2.953552 0.000000 -11.020509 0.000000 -6.111297 -15.895308 -3.840458 0.000000 0.000000 0.000000 -10.283364 -5.680285 -4.341833 11.028282 -11.302392 -2.372630 -1.384272 -14.238564 -6.320108 -0.625450 -26.924139 -3.827588 0.000002 0.000000 0.000002 -13.708517 -7.363472 -3.720934 18.141130 -14.052722 -3.242670 0.000000 -18.787243 0.000000 -0.429714 -8.456029 2.555498 0.000000 0.000000 0.000000 -15.923531 -20.094472 -5.473576 30.419190 -7.190812 1.735924 0.000000 -8.162914 0.000000 -1.861911 -22.861429 -6.167925 0.000000 -0.000003 -0.000001 -175.405536 -2.787440 -6.530594 6.011685 0.000213 0.000206 -79.475489 -0.322680 -5.882958 -5.317103 1.542584 2.146634 -0.999998 0.000000 0.000000 4.350110 -5.466916 -8.282773 6.690513 -0.000075 0.000393 -79.722669 0.422693 -8.397997 -4.519705 0.616068 1.664254 -1.000001 0.000000 0.000000
0.000000 0.000000 0.000000 0.000000 0.000000 0.000000 1.652423 100.009811 -1.342634 90.758110 -0.088647 91.523397 -4.266480 -0.782645 -0.064189 -12.338363 -0.776064 0.141264 -162.946262 -179.466595 177.965664 23.884526 0.920596 2.633763 -2.588615 -0.663062 -0.009099 -32.826105 1.808148 -1.868531 0.000006 0.000000 0.000000 0.000006 0.000000 0.000000 0.013066 -0.000055 -0.000757 0.013062 -0.000055 -0.000757 54.305410 -104.885076 -40.611257 39.928028 -57.682615 23.880675 29.583414 -0.000050 -0.000566 -5.020806 3.507997 6.752292 17.636621 -26.322712 52.411155 -19.466645 -14.395592 29.410352 0.000000 -8.774814 0.000000 0.000000 0.000000 -0.000004 -0.609776 -1.795653 -3.889325 -4.807087 -11.046803 -2.937845 0.000000 -20.975994 0.000000 -5.019973 -25.033521 -4.031871 0.000006 0.000000 0.000000 -10.634530 -5.686969 -3.565584 10.573263 -17.922936 -3.113898 0.000000 -13.821193 0.000000 -0.501785 -31.181457 -4.027009 0.000002 0.000000 0.000002 -13.982710 -7.150195 -2.875039 13.772719 -8.401483 -3.218239 0.347728 -34.211501 0.771652 -0.963029 -17.733337 2.621012 0.000000 0.000000 0.000000 -17.346414 -20.095210 -4.201776 21.757546 -1.638370 3.866422 0.000000 -6.338816 0.000000 -1.697594 -22.591709 -6.193992 0.000000 -0.000004 -0.000002 -144.395733 -102.636214 -20.099823 29.707543 -64.149929 2.455364 33.006816 -0.000109 -0.000189 -0.255100 -2.586842 17.625720 22.182096 -20.375874 49.933272 -16.701795 -16.743521 28.476499 0.000000 -12.690592 0.000000 0.000003 0.000000 0.000000 -0.105919 -1.513855 -4.275878 -5.039037 -5.612866 -2.953552 0.000000 -11.020509 0.000000 -6.111297 -15.895308 -3.840458 0.000000 0.000000 0.000000 -10.283364 -5.680285 -4.341833 11.028282 -11.302392 -2.372630 -1.384272 -14.238564 -6.320108 -0.625450 -26.924139 -3.827588 0.000002 0.000000 0.000002 -13.708517 -7.363472 -3.720934 18.141130 -14.052722 -3.242670 0.000000 -18.787243 0.000000 -0.429714 -8.456029 2.555498 0.000000 0.000000 0.000000 -15.923531 -20.094472 -5.473576 30.419190 -7.190812 1.735924 0.000000 -8.162914 0.000000 -1.861911 -22.861429 -6.167925 0.000000 -0.000003 -0.000001 -175.602390 -2.756778 -6.398138 6.235510 0.000216 0.000208 -79.559966 -0.440600 -5.853436 -5.318801 1.542616 2.146633 -0.999998 0.000000 0.000000 4.241569 -5.508323 -8.280451 6.751566 -0.000076 0.000393 -79.721530 0.423264 -8.442761 -4.511105 0.615907 1.664267 -1.000001 0.000000 0.000000
0.000000 0.000000 0.000000 0.000000 0.000000 0.000000 1.699384 100.011665 -1.396157 90.763844 -0.140425 91.548362 -4.224076 -0.784314 -0.063055 -12.320797 -0.780144 0.147279 -162.934847 -179.459951 177.969946 23.827908 0.906386 2.634253 -2.588216 -0.663018 -0.009394 -32.926461 1.805170 -1.871821 0.000006 0.000000 0.000000 0.000006 0.000000 0.000000 0.012989 -0.000055 -0.000754 0.012984 -0.000055 -0.000753 54.337970 -104.862768 -40.627391 39.948591 -57.585442 24.104802 29.647572 -0.000050 -0.000566 -5.079866 3.482892 6.738878 17.636621 -26.322712 52.411155 -19.466645 -14.395592 29.410352 0.000000 -8.774814 0.000000 0.000000 0.000000 -0.000004 -0.609776 -1.795653 -3.889325 -4.807087 -11.046803 -2.937845 0.000000 -20.975994 0.000000 -5.019973 -25.033521 -4.031871 0.000006 0.000000 0.000000 -10.634530 -5.686969 -3.565584 10.573263 -17.922936 -3.113898 0.000000 -13.821193 0.000000 -0.501785 -31.181457 -4.027009 0.000002 0.000000 0.000002 -13.982710 -7.150195 -2.875039 13.772719 -8.401483 -3.218239 0.347728 -34.211501 0.771652 -0.963029 -17.733337 2.621012 0.000000 0.000000 0.000000 -17.346414 -20.095210 -4.201776 21.757546 -1.638370 3.866422 0.000000 -6.338816 0.000000 -1.697594 -22.591709 -6.193992 0.000000 -0.000004 -0.000002 -144.472155 -102.627055 -19.988684 29.476312 -64.141273 2.225593 33.505070 -0.000111 -0.000190 -0.169829 -2.683608 17.506970 22.182096 -20.375874 49.933272 -16.701795 -16.743521 28.476499 0.000000 -12.690592 0.000000 0.000003 0.000000 0.000000 -0.105919 -1.513855 -4.275878 -5.039037 -5.612866 -2.953552 0.000000 -11.020509 0.000000 -6.111297 -15.895308 -3.840458 0.000000 0.000000 0.000000 -10.283364 -5.680285 -4.341833 11.028282 -11.302392 -2.372630 -1.384272 -14.238564 -6.320108 -0.625450 -26.924139 -3.827588 0.000002 0.000000 0.000002 -13.708517 -7.363472 -3.720934 18.141130 -14.052722 -3.242670 0.000000 -18.787243 0.000000 -0.429714 -8.456029 2.555498 0.000000 0.000000 0.000000 -15.923531 -20.094472 -5.473576 30.419190 -7.190812 1.735924 0.000000 -8.162914 0.000000 -1.861911 -22.861429 -6.167925 0.000000 -0.000003 -0.000001 -175.807467 -2.723744 -6.267790 6.460258 0.000218 0.000209 -79.643133 -0.553320 -5.823321 -5.320100 1.542640 2.146632 -0.999998 0.000000 0.000000 4.123717 -5.552621 -8.284024 6.818390 -0.000077 0.000392 -79.721715 0.425326 -8.486251 -4.505605 0.615803 1.664276 -1.000001 0.000000 0.000000
